<svg width="580" height="400" xmlns="http://www.w3.org/2000/svg">
 <!-- Created with Method Draw - http://github.com/duopixel/Method-Draw/ -->
 <defs>
  <filter height="200%" width="200%" y="-50%" x="-50%" id="svg_1_blur">
   <feGaussianBlur stdDeviation="0" in="SourceGraphic"/>
  </filter>
 </defs>
 <g>
  <title>background</title>
  <rect fill="#fff" id="canvas_background" height="402" width="582" y="-1" x="-1"/>
  <g display="none" overflow="visible" y="0" x="0" height="100%" width="100%" id="canvasGrid">
   <rect fill="url(#gridpattern)" stroke-width="0" y="0" x="0" height="100%" width="100%"/>
  </g>
 </g>
 <g>
  <title>Layer 1</title>
  <ellipse transform="rotate(-17 229,224.5)" filter="url(#svg_1_blur)" ry="103" rx="101" id="svg_1" cy="224.5" cx="229" stroke-width="0" stroke="#000" fill="#0000ff"/>
  <path stroke="#000" id="svg_3" d="m314.57839,213.946276l-21.645528,-19.002576l0,-45.384009l-18.55634,0l0,29.093427l-43.298126,-38.011357l-83.499994,73.304514l19.878258,-0.415798l0,74.111286l126.359837,0l0,-73.695488l20.761893,0zm-83.499994,63.09575l-41.233954,0l0,-43.441551l41.233954,0l0,43.441551zm40.060487,-18.617808l-27.095791,0l0,-25.084393l27.095791,0l0,25.084393z" stroke-width="0" fill="#ffffff"/>
 </g>
</svg>